HIERARCHY
ROOT SpineBase
{
  OFFSET 0.000000 0.000000 0.000000
  CHANNELS 6 Xposition Yposition Zposition Zrotation Xrotation Yrotation
  JOINT SpineMid
  {
    OFFSET 0.000000 25.525175 0.000000
    CHANNELS 3 Zrotation Xrotation Yrotation
    JOINT SpineShoulder
    {
      OFFSET -0.029952 19.143460 -0.500022
      CHANNELS 3 Zrotation Xrotation Yrotation
      JOINT Neck
      {
        OFFSET -0.045666 6.414534 -0.460880
        CHANNELS 3 Zrotation Xrotation Yrotation
        JOINT Head
        {
          OFFSET 3.909545 11.806542 1.726785
          CHANNELS 3 Zrotation Xrotation Yrotation
          End Site
          {
            OFFSET 0 0 0
          }
        }
      }
      JOINT ShoulderLeft
      {
        OFFSET -13.480710 -1.666042 -5.064476
        CHANNELS 3 Zrotation Xrotation Yrotation
        JOINT ElbowLeft
        {
          OFFSET -13.381844 -18.624782 0.712131
          CHANNELS 3 Zrotation Xrotation Yrotation
          JOINT WristLeft
          {
            OFFSET 1.244690 -9.678280 -19.631195
            CHANNELS 3 Zrotation Xrotation Yrotation
            JOINT HandLeft
            {
              OFFSET -2.055048 -0.541916 -1.492734
              CHANNELS 3 Zrotation Xrotation Yrotation
              JOINT HandTipLeft
              {
                OFFSET -0.386138 -1.113355 -2.900641
                CHANNELS 3 Zrotation Xrotation Yrotation
                End Site
                {
                  OFFSET 0 0 0
                }
              }
              JOINT ThumbLeft
              {
                OFFSET -2.678812 5.294652 -1.492788
                CHANNELS 3 Zrotation Xrotation Yrotation
                End Site
                {
                  OFFSET 0 0 0
                }
              }
            }
          }
        }
      }
      JOINT ShoulderRight
      {
        OFFSET 14.772408 -2.176059 2.031293
        CHANNELS 3 Zrotation Xrotation Yrotation
        JOINT ElbowRight
        {
          OFFSET 6.804854 -23.822161 9.734391
          CHANNELS 3 Zrotation Xrotation Yrotation
          JOINT WristRight
          {
            OFFSET 9.016192 -15.742300 -14.214452
            CHANNELS 3 Zrotation Xrotation Yrotation
            JOINT HandRight
            {
              OFFSET -0.957616 -2.654316 -1.709390
              CHANNELS 3 Zrotation Xrotation Yrotation
              JOINT HandTipRight
              {
                OFFSET 0.126045 -2.051173 -3.547352
                CHANNELS 3 Zrotation Xrotation Yrotation
                End Site
                {
                  OFFSET 0 0 0
                }
              }
              JOINT ThumbRight
              {
                OFFSET -2.084898 1.223303 -1.848069
                CHANNELS 3 Zrotation Xrotation Yrotation
                End Site
                {
                  OFFSET 0 0 0
                }
              }
            }
          }
        }
      }
    }
  }
  JOINT HipLeft
  {
    OFFSET -6.206259 1.331821 -4.236285
    CHANNELS 3 Zrotation Xrotation Yrotation
    JOINT KneeLeft
    {
      OFFSET 4.021449 0.807382 -30.918648
      CHANNELS 3 Zrotation Xrotation Yrotation
      JOINT AnkleLeft
      {
        OFFSET 0.447599 -32.182249 -4.719591
        CHANNELS 3 Zrotation Xrotation Yrotation
        JOINT FootLeft
        {
          OFFSET 1.740873 -1.608734 -11.360210
          CHANNELS 3 Zrotation Xrotation Yrotation
          End Site
          {
            OFFSET 0 0 0
          }
        }
      }
    }
  }
  JOINT HipRight
  {
    OFFSET 5.723128 1.439388 -2.213687
    CHANNELS 3 Zrotation Xrotation Yrotation
    JOINT KneeRight
    {
      OFFSET 18.711176 0.103132 -23.823238
      CHANNELS 3 Zrotation Xrotation Yrotation
      JOINT AnkleRight
      {
        OFFSET -6.656547 -35.832707 5.665878
        CHANNELS 3 Zrotation Xrotation Yrotation
        JOINT FootRight
        {
          OFFSET 1.131800 -6.218637 -3.240129
          CHANNELS 3 Zrotation Xrotation Yrotation
          End Site
          {
            OFFSET 0 0 0
          }
        }
      }
    }
  }
}
MOTION
Frames: 5
Frame Time: 0.033333
26.111865 40.508824 352.539752 -0.000000 0.000000 -9.622844 0.000000 0.000000 9.622844 -0.000000 0.000000 0.000000 -0.000000 0.000000 0.000000 0.000000 0.000000 0.000000 -0.000000 0.000000 0.000000 -0.000000 0.000000 0.000000 -0.000000 0.000000 0.000000 -0.000000 0.000000 0.000000 0.000000 0.000000 0.000000 0.000000 0.000000 0.000000 -0.000000 0.000000 0.000000 -0.000000 0.000000 0.000000 -0.000000 0.000000 0.000000 -0.000000 0.000000 0.000000 0.000000 0.000000 0.000000 0.000000 0.000000 0.000000 0.000000 0.000000 9.622844 -0.000000 0.000000 0.000000 -0.000000 0.000000 0.000000 0.000000 0.000000 0.000000 0.000000 0.000000 9.622844 -0.000000 0.000000 0.000000 -0.000000 0.000000 0.000000 0.000000 0.000000 0.000000
26.239178 40.483615 352.274664 0.146347 0.416135 -10.064467 -0.071376 -0.435305 10.063664 -0.000000 0.000000 0.000000 -0.000000 0.000000 0.000000 0.000000 0.000000 0.000000 -0.000000 0.000000 0.000000 -0.913445 -1.997996 1.639501 10.008243 -3.980951 -8.314067 -7.725482 -3.131263 6.893096 0.000000 0.000000 0.000000 0.000000 0.000000 0.000000 -0.000000 0.000000 0.000000 -0.000000 0.000000 0.000000 -0.391127 3.257101 -0.894890 1.960085 -3.765456 -1.645040 0.000000 0.000000 0.000000 0.000000 0.000000 0.000000 -0.071376 -0.435305 10.063664 -0.000000 0.000000 0.000000 -0.000000 0.000000 0.000000 0.000000 0.000000 0.000000 -0.071376 -0.435305 10.063664 -0.000000 0.000000 0.000000 0.324082 2.413113 0.260576 0.000000 0.000000 0.000000
26.335498 40.458149 352.058658 0.251160 0.747594 -10.400705 -0.112084 -0.780649 10.398303 -0.000000 0.000000 0.000000 -0.000000 0.000000 0.000000 0.000000 0.000000 0.000000 -0.000000 0.000000 0.000000 -1.550753 -3.672440 2.810660 20.010612 -10.851130 -15.487501 -15.261681 -5.589687 13.249921 0.000000 0.000000 0.000000 0.000000 0.000000 0.000000 -0.158764 -0.937008 -0.332856 0.214667 1.914514 0.823509 -0.567415 4.664222 -2.111659 3.734300 -6.923481 -3.327236 0.000000 0.000000 0.000000 0.000000 0.000000 0.000000 -0.112084 -0.780649 10.398303 -0.163852 -0.949766 0.009473 0.164032 0.949735 -0.012191 0.000000 0.000000 0.000000 -0.112084 -0.780649 10.398303 -0.000000 0.000000 0.000000 0.712237 5.658519 0.608041 0.000000 0.000000 0.000000
26.400823 40.432425 351.891735 0.314211 0.993837 -10.625909 -0.125595 -1.034726 10.622050 -0.000000 0.000000 0.000000 0.140848 -0.801027 0.245987 0.000000 0.000000 0.000000 -0.000000 0.000000 0.000000 -1.951122 -5.020665 3.548653 28.934504 -19.027266 -20.314136 -21.889490 -7.553478 18.114957 0.000000 0.000000 0.000000 0.000000 0.000000 0.000000 -0.134204 -1.072592 -0.361231 0.125879 2.310423 1.054945 -0.421632 6.017330 -2.890139 5.172672 -9.607719 -4.870406 0.000000 0.000000 0.000000 0.000000 0.000000 0.000000 -0.125595 -1.034726 10.622050 -0.216186 -1.257079 0.011867 0.216498 1.257025 -0.016614 0.000000 0.000000 0.000000 -0.125595 -1.034726 10.622050 -0.000000 0.000000 0.000000 1.148497 9.702087 1.026813 0.000000 0.000000 0.000000
26.435153 40.406443 351.773894 0.335329 1.154457 -10.735954 -0.114445 -1.196706 10.731380 -0.000000 0.000000 0.000000 0.198244 -1.045548 0.319649 0.000000 0.000000 0.000000 -0.000000 0.000000 0.000000 -2.146023 -6.050850 3.885715 36.435465 -26.680476 -22.485520 -27.190023 -9.131222 20.735714 0.000000 0.000000 0.000000 0.000000 0.000000 0.000000 -0.039214 -0.985843 -0.296961 -0.088259 2.341801 1.172018 -0.031738 6.807659 -3.528647 6.098258 -11.844335 -6.074608 0.000000 0.000000 0.000000 0.000000 0.000000 0.000000 -0.114445 -1.196706 10.731380 -0.248719 -1.452146 0.013150 0.249132 1.452075 -0.019459 0.000000 0.000000 0.000000 0.041887 -0.894554 9.905718 -0.205950 -0.270763 0.828029 1.613913 14.476798 1.499759 0.000000 0.000000 0.000000
